<svg version="1.1" viewBox="0.0 0.0 317.254593175853 319.5748031496063" width="100%" height="100%" fill="none" stroke="none" stroke-linecap="square" stroke-miterlimit="10" xmlns:xlink="http://www.w3.org/1999/xlink" xmlns="http://www.w3.org/2000/svg"><clipPath id="p.0"><path d="m0 0l317.2546 0l0 319.5748l-317.2546 0l0 -319.5748z" clip-rule="nonzero"/></clipPath><g clip-path="url(#p.0)"><path fill="#ffffff" fill-opacity="0.0" d="m0 0l317.2546 0l0 319.5748l-317.2546 0z" fill-rule="evenodd"/><path fill="#ffffff" fill-opacity="0.0" d="m41.82677 64.69292l0.37795258 188.97638" fill-rule="evenodd"/><path stroke="#ffffff" stroke-width="8.0" stroke-linejoin="round" stroke-linecap="butt" d="m41.82677 64.69292l0.37795258 188.97638" fill-rule="evenodd"/><path fill="#ffffff" fill-opacity="0.0" d="m158.99213 64.69292l0.37794495 188.97638" fill-rule="evenodd"/><path stroke="#ffffff" stroke-width="8.0" stroke-linejoin="round" stroke-linecap="butt" d="m158.99213 64.69292l0.37794495 188.97638" fill-rule="evenodd"/><path fill="#ffffff" fill-opacity="0.0" d="m42.204723 158.99213l116.7874 0.37794495" fill-rule="evenodd"/><path stroke="#ffffff" stroke-width="8.0" stroke-linejoin="round" stroke-linecap="butt" d="m42.204723 158.99213l116.7874 0.37794495" fill-rule="evenodd"/><path fill="#ffffff" fill-opacity="0.0" d="m158.99213 249.51181l120.188965 0.3779602" fill-rule="evenodd"/><path stroke="#ffffff" stroke-width="8.0" stroke-linejoin="round" stroke-linecap="butt" d="m158.99213 249.51181l120.188965 0.3779602" fill-rule="evenodd"/><path fill="#ffffff" fill-opacity="0.0" d="m158.99213 68.47244l120.188965 0.37795258" fill-rule="evenodd"/><path stroke="#ffffff" stroke-width="8.0" stroke-linejoin="round" stroke-linecap="butt" d="m158.99213 68.47244l120.188965 0.37795258" fill-rule="evenodd"/><path fill="#ffffff" fill-opacity="0.0" d="m158.99213 158.99213l116.787415 0.37794495" fill-rule="evenodd"/><path stroke="#ffffff" stroke-width="8.0" stroke-linejoin="round" stroke-linecap="butt" d="m158.99213 158.99213l116.787415 0.37794495" fill-rule="evenodd"/><path fill="#ffffff" fill-opacity="0.0" d="m8.0 159.1811l0 0c0 -83.49502 67.68609 -151.1811 151.1811 -151.1811l0 0c40.09572 0 78.549225 15.927963 106.90117 44.27992c28.35196 28.351955 44.279938 66.805466 44.279938 106.901184l0 0c0 83.49501 -67.6861 151.1811 -151.1811 151.1811l0 0c-83.49502 0 -151.1811 -67.6861 -151.1811 -151.1811z" fill-rule="evenodd"/><path stroke="#ffffff" stroke-width="8.0" stroke-linejoin="round" stroke-linecap="butt" d="m8.0 159.1811l0 0c0 -83.49502 67.68609 -151.1811 151.1811 -151.1811l0 0c40.09572 0 78.549225 15.927963 106.90117 44.27992c28.35196 28.351955 44.279938 66.805466 44.279938 106.901184l0 0c0 83.49501 -67.6861 151.1811 -151.1811 151.1811l0 0c-83.49502 0 -151.1811 -67.6861 -151.1811 -151.1811z" fill-rule="evenodd"/><path fill="#ffffff" fill-opacity="0.0" d="m158.93033 158.90627l-117.10236 -91.46456" fill-rule="evenodd"/><path stroke="#ffffff" stroke-width="8.0" stroke-linejoin="round" stroke-linecap="butt" d="m158.93033 158.90627l-117.10236 -91.46456" fill-rule="evenodd"/><path fill="#ffffff" d="m145.38583 40.82677l0 0c0 -7.6189194 6.176346 -13.795275 13.795273 -13.795275l0 0c3.6587372 0 7.167618 1.4534264 9.75473 4.0405426c2.5871124 2.5871143 4.0405426 6.095999 4.0405426 9.754732l0 0c0 7.6189194 -6.176361 13.795277 -13.795273 13.795277l0 0c-7.618927 0 -13.795273 -6.1763573 -13.795273 -13.795277z" fill-rule="evenodd"/><path stroke="#ffffff" stroke-width="1.0" stroke-linejoin="round" stroke-linecap="butt" d="m145.38583 40.82677l0 0c0 -7.6189194 6.176346 -13.795275 13.795273 -13.795275l0 0c3.6587372 0 7.167618 1.4534264 9.75473 4.0405426c2.5871124 2.5871143 4.0405426 6.095999 4.0405426 9.754732l0 0c0 7.6189194 -6.176361 13.795277 -13.795273 13.795277l0 0c-7.618927 0 -13.795273 -6.1763573 -13.795273 -13.795277z" fill-rule="evenodd"/><path fill="#ffffff" fill-opacity="0.0" d="m275.9382 251.40495l-117.10237 -91.464554" fill-rule="evenodd"/><path stroke="#ffffff" stroke-width="8.0" stroke-linejoin="round" stroke-linecap="butt" d="m275.9382 251.40495l-117.10237 -91.464554" fill-rule="evenodd"/><path fill="#ffffff" fill-opacity="0.0" d="m159.43307 68.47244l44.125977 0l0 0c24.370117 0 44.12599 20.34813 44.12599 45.448814c0 25.100685 -19.755875 45.448814 -44.12599 45.448814l-44.125977 0z" fill-rule="evenodd"/><path stroke="#ffffff" stroke-width="8.0" stroke-linejoin="round" stroke-linecap="butt" d="m159.43307 68.47244l44.125977 0l0 0c24.370117 0 44.12599 20.34813 44.12599 45.448814c0 25.100685 -19.755875 45.448814 -44.12599 45.448814l-44.125977 0z" fill-rule="evenodd"/></g></svg>